<?xml version="1.0" encoding="UTF-8" standalone="no"?>
<!-- Created with Inkscape (http://www.inkscape.org/) -->

<svg
   xmlns:dc="http://purl.org/dc/elements/1.1/"
   xmlns:cc="http://creativecommons.org/ns#"
   xmlns:rdf="http://www.w3.org/1999/02/22-rdf-syntax-ns#"
   xmlns:svg="http://www.w3.org/2000/svg"
   xmlns="http://www.w3.org/2000/svg"
   xmlns:sodipodi="http://sodipodi.sourceforge.net/DTD/sodipodi-0.dtd"
   xmlns:inkscape="http://www.inkscape.org/namespaces/inkscape"
   width="806.99023"
   height="475.42752"
   id="svg2"
   version="1.1"
   inkscape:version="0.48.4 r9939"
   sodipodi:docname="drawing2.svg">
  <defs
     id="defs4" />
  <sodipodi:namedview
     id="base"
     pagecolor="#ffffff"
     bordercolor="#666666"
     borderopacity="1.0"
     inkscape:pageopacity="0.0"
     inkscape:pageshadow="2"
     inkscape:zoom="0.24059329"
     inkscape:cx="2770.3598"
     inkscape:cy="-613.19808"
     inkscape:document-units="px"
     inkscape:current-layer="layer1"
     showgrid="true"
     inkscape:window-width="1920"
     inkscape:window-height="1017"
     inkscape:window-x="-8"
     inkscape:window-y="-8"
     inkscape:window-maximized="1"
     showguides="true"
     inkscape:guide-bbox="true"
     fit-margin-top="0"
     fit-margin-left="0"
     fit-margin-right="0"
     fit-margin-bottom="0">
    <inkscape:grid
       type="xygrid"
       id="grid4249"
       empspacing="5"
       visible="true"
       enabled="true"
       snapvisiblegridlinesonly="true"
       originx="-19.416793px"
       originy="-561.57248px" />
  </sodipodi:namedview>
  <metadata
     id="metadata7">
    <rdf:RDF>
      <cc:Work
         rdf:about="">
        <dc:format>image/svg+xml</dc:format>
        <dc:type
           rdf:resource="http://purl.org/dc/dcmitype/StillImage" />
        <dc:title />
      </cc:Work>
    </rdf:RDF>
  </metadata>
  <g
     inkscape:label="Layer 1"
     inkscape:groupmode="layer"
     id="layer1"
     transform="translate(-19.416793,-15.36218)">
    <path
       style="fill:none;stroke:#77c200;stroke-width:4;stroke-linecap:butt;stroke-linejoin:miter;stroke-miterlimit:4;stroke-opacity:1;stroke-dasharray:24, 8;stroke-dashoffset:0"
       d="m 462,102.36218 c 0,310 0,300 0,300"
       id="path4710-8"
       inkscape:connector-curvature="0" />
    <rect
       style="fill:#ffffff;fill-opacity:1;stroke:#77c200;stroke-width:6;stroke-miterlimit:4;stroke-opacity:1;stroke-dasharray:none;stroke-dashoffset:0"
       id="rect3124-1"
       width="142.15044"
       height="141.28891"
       x="391.44406"
       y="181.24121"
       ry="26.70705" />
    <g
       id="g3094" />
    <text
       xml:space="preserve"
       style="font-size:56px;font-style:normal;font-weight:normal;text-align:center;line-height:125%;letter-spacing:0px;word-spacing:0px;text-anchor:middle;fill:#77c200;fill-opacity:1;stroke:none;font-family:Sans"
       x="273.22632"
       y="112.9989"
       id="text3112"
       sodipodi:linespacing="125%"><tspan
         sodipodi:role="line"
         id="tspan3114"
         x="273.22632"
         y="112.9989"
         style="font-size:14px;font-style:normal;font-variant:normal;font-weight:bold;font-stretch:normal;fill:#77c200;fill-opacity:1;font-family:MS PGothic;-inkscape-font-specification:MS PGothic Bold">テーブルデータ作成</tspan></text>
    <text
       xml:space="preserve"
       style="font-size:56px;font-style:normal;font-weight:normal;text-align:center;line-height:125%;letter-spacing:0px;word-spacing:0px;text-anchor:middle;fill:#77c200;fill-opacity:1;stroke:none;font-family:Sans"
       x="641.34747"
       y="210.43823"
       id="text3120"
       sodipodi:linespacing="125%"><tspan
         sodipodi:role="line"
         id="tspan3122"
         x="641.34747"
         y="210.43823"
         style="font-size:14px;font-weight:bold;fill:#77c200;fill-opacity:1;-inkscape-font-specification:Sans Bold">Validation</tspan></text>
    <rect
       style="fill:none;stroke:#77c200;stroke-width:6;stroke-miterlimit:4;stroke-opacity:1;stroke-dasharray:none;stroke-dashoffset:0"
       id="rect3124"
       width="142.15044"
       height="141.28891"
       x="201.72034"
       y="83.984253"
       ry="26.70705" />
    <rect
       style="fill:none;stroke:#77c200;stroke-width:6;stroke-miterlimit:4;stroke-opacity:1;stroke-dasharray:none;stroke-dashoffset:0"
       id="rect3124-1-7"
       width="142.15044"
       height="141.28891"
       x="569.44409"
       y="181.24121"
       ry="26.70705" />
    <rect
       style="fill:none;stroke:#77c200;stroke-width:6;stroke-miterlimit:4;stroke-opacity:1;stroke-dasharray:none;stroke-dashoffset:0"
       id="rect3124-4"
       width="142.15044"
       height="141.28891"
       x="35.939423"
       y="83.270477"
       ry="26.70705" />
    <rect
       style="fill:none;stroke:#77c200;stroke-width:6;stroke-miterlimit:4;stroke-opacity:1;stroke-dasharray:none;stroke-dashoffset:0"
       id="rect3124-4-8"
       width="142.15044"
       height="141.28891"
       x="35.908798"
       y="280.04016"
       ry="26.70705" />
    <rect
       style="fill:none;stroke:#77c200;stroke-width:6;stroke-miterlimit:4;stroke-opacity:1;stroke-dasharray:none;stroke-dashoffset:0"
       id="rect3124-2"
       width="142.15044"
       height="141.28891"
       x="200.89012"
       y="279.21057"
       ry="26.70705" />
    <g
       id="g4180"
       transform="translate(78,-298)">
      <path
         transform="translate(-161.96534,248.97863)"
         d="m 137.84284,133.12274 c 0,9.51606 -7.71429,17.23036 -17.23035,17.23036 -9.51606,0 -17.23036,-7.7143 -17.23036,-17.23036 0,-9.51606 7.7143,-17.23035 17.23036,-17.23035 9.51606,0 17.23035,7.71429 17.23035,17.23035 z"
         sodipodi:ry="17.230354"
         sodipodi:rx="17.230354"
         sodipodi:cy="133.12274"
         sodipodi:cx="120.61249"
         id="path3934-9"
         style="fill:#77c200;fill-opacity:1;stroke:none"
         sodipodi:type="arc" />
      <text
         sodipodi:linespacing="125%"
         id="text4071"
         y="392.13199"
         x="-41.101128"
         style="font-size:28px;font-style:normal;font-weight:normal;text-align:center;line-height:125%;letter-spacing:0px;word-spacing:0px;text-anchor:middle;fill:#000000;fill-opacity:1;stroke:none;font-family:Sans"
         xml:space="preserve"><tspan
           style="font-size:28px;font-style:normal;font-variant:normal;font-weight:bold;font-stretch:normal;fill:#ffffff;font-family:MS PGothic;-inkscape-font-specification:MS PGothic Bold"
           y="392.13199"
           x="-41.101128"
           id="tspan4073"
           sodipodi:role="line">0</tspan></text>
    </g>
    <g
       id="g4211"
       transform="translate(74,-294)">
      <path
         transform="translate(-157.65775,442.08649)"
         d="m 137.84284,133.12274 c 0,9.51606 -7.71429,17.23036 -17.23035,17.23036 -9.51606,0 -17.23036,-7.7143 -17.23036,-17.23036 0,-9.51606 7.7143,-17.23035 17.23036,-17.23035 9.51606,0 17.23035,7.71429 17.23035,17.23035 z"
         sodipodi:ry="17.230354"
         sodipodi:rx="17.230354"
         sodipodi:cy="133.12274"
         sodipodi:cx="120.61249"
         id="path3934-9-8"
         style="fill:#77c200;fill-opacity:1;stroke:none"
         sodipodi:type="arc" />
      <text
         sodipodi:linespacing="125%"
         id="text4071-5"
         y="584.19806"
         x="-37.629818"
         style="font-size:28px;font-style:normal;font-weight:normal;text-align:center;line-height:125%;letter-spacing:0px;word-spacing:0px;text-anchor:middle;fill:#000000;fill-opacity:1;stroke:none;font-family:Sans"
         xml:space="preserve"><tspan
           style="font-size:28px;font-style:normal;font-variant:normal;font-weight:bold;font-stretch:normal;fill:#ffffff;font-family:MS PGothic;-inkscape-font-specification:MS PGothic Bold"
           y="584.19806"
           x="-37.629818"
           id="tspan4073-5"
           sodipodi:role="line">0</tspan></text>
    </g>
    <g
       id="g4190"
       transform="translate(82,-310)">
      <g
         id="g4185">
        <path
           sodipodi:type="arc"
           style="fill:#77c200;fill-opacity:1;stroke:none"
           id="path3934"
           sodipodi:cx="120.61249"
           sodipodi:cy="133.12274"
           sodipodi:rx="17.230354"
           sodipodi:ry="17.230354"
           d="m 137.84284,133.12274 c 0,9.51606 -7.71429,17.23036 -17.23035,17.23036 -9.51606,0 -17.23036,-7.7143 -17.23036,-17.23036 0,-9.51606 7.7143,-17.23035 17.23036,-17.23035 9.51606,0 17.23035,7.71429 17.23035,17.23035 z"
           transform="translate(-0.30893488,259.04392)" />
        <text
           xml:space="preserve"
           style="font-size:28px;font-style:normal;font-weight:normal;text-align:center;line-height:125%;letter-spacing:0px;word-spacing:0px;text-anchor:middle;fill:#000000;fill-opacity:1;stroke:none;font-family:Sans"
           x="120.09323"
           y="401.05954"
           id="text4071-5-1"
           sodipodi:linespacing="125%"><tspan
             sodipodi:role="line"
             id="tspan4073-5-7"
             x="120.09323"
             y="401.05954"
             style="font-size:28px;font-style:normal;font-variant:normal;font-weight:bold;font-stretch:normal;fill:#ffffff;font-family:MS PGothic;-inkscape-font-specification:MS PGothic Bold">1</tspan></text>
      </g>
    </g>
    <g
       id="g4206"
       transform="translate(78,-284)">
      <path
         transform="translate(4.06528,432.54316)"
         d="m 137.84284,133.12274 c 0,9.51606 -7.71429,17.23036 -17.23035,17.23036 -9.51606,0 -17.23036,-7.7143 -17.23036,-17.23036 0,-9.51606 7.7143,-17.23035 17.23036,-17.23035 9.51606,0 17.23035,7.71429 17.23035,17.23035 z"
         sodipodi:ry="17.230354"
         sodipodi:rx="17.230354"
         sodipodi:cy="133.12274"
         sodipodi:cx="120.61249"
         id="path3934-9-8-4"
         style="fill:#77c200;fill-opacity:1;stroke:none"
         sodipodi:type="arc" />
      <text
         sodipodi:linespacing="125%"
         id="text4071-5-1-1"
         y="575.05957"
         x="124.09323"
         style="font-size:28px;font-style:normal;font-weight:normal;text-align:center;line-height:125%;letter-spacing:0px;word-spacing:0px;text-anchor:middle;fill:#000000;fill-opacity:1;stroke:none;font-family:Sans"
         xml:space="preserve"><tspan
           style="font-size:28px;font-style:normal;font-variant:normal;font-weight:bold;font-stretch:normal;fill:#ffffff;font-family:MS PGothic;-inkscape-font-specification:MS PGothic Bold"
           y="575.05957"
           x="124.09323"
           id="tspan4073-5-7-1"
           sodipodi:role="line">1</tspan></text>
    </g>
    <g
       id="g4196"
       transform="translate(116,-312)">
      <path
         transform="translate(155.93471,361.03988)"
         d="m 137.84284,133.12274 c 0,9.51606 -7.71429,17.23036 -17.23035,17.23036 -9.51606,0 -17.23036,-7.7143 -17.23036,-17.23036 0,-9.51606 7.7143,-17.23035 17.23036,-17.23035 9.51606,0 17.23035,7.71429 17.23035,17.23035 z"
         sodipodi:ry="17.230354"
         sodipodi:rx="17.230354"
         sodipodi:cy="133.12274"
         sodipodi:cx="120.61249"
         id="path3934-0"
         style="fill:#77c200;fill-opacity:1;stroke:none"
         sodipodi:type="arc" />
      <text
         sodipodi:linespacing="125%"
         id="text4071-5-1-1-5"
         y="503.05954"
         x="276.09323"
         style="font-size:28px;font-style:normal;font-weight:normal;text-align:center;line-height:125%;letter-spacing:0px;word-spacing:0px;text-anchor:middle;fill:#000000;fill-opacity:1;stroke:none;font-family:Sans"
         xml:space="preserve"><tspan
           style="font-size:28px;font-style:normal;font-variant:normal;font-weight:bold;font-stretch:normal;fill:#ffffff;font-family:MS PGothic;-inkscape-font-specification:MS PGothic Bold"
           y="503.05954"
           x="276.09323"
           id="tspan4073-5-7-1-2"
           sodipodi:role="line">2</tspan></text>
    </g>
    <g
       id="g4201"
       transform="translate(130,-312)">
      <path
         transform="translate(317.90005,359.31684)"
         d="m 137.84284,133.12274 c 0,9.51606 -7.71429,17.23036 -17.23035,17.23036 -9.51606,0 -17.23036,-7.7143 -17.23036,-17.23036 0,-9.51606 7.7143,-17.23035 17.23036,-17.23035 9.51606,0 17.23035,7.71429 17.23035,17.23035 z"
         sodipodi:ry="17.230354"
         sodipodi:rx="17.230354"
         sodipodi:cy="133.12274"
         sodipodi:cx="120.61249"
         id="path3934-4"
         style="fill:#77c200;fill-opacity:1;stroke:none"
         sodipodi:type="arc" />
      <text
         sodipodi:linespacing="125%"
         id="text4071-5-1-1-5-7"
         y="501.05954"
         x="438.09323"
         style="font-size:28px;font-style:normal;font-weight:normal;text-align:center;line-height:125%;letter-spacing:0px;word-spacing:0px;text-anchor:middle;fill:#000000;fill-opacity:1;stroke:none;font-family:Sans"
         xml:space="preserve"><tspan
           style="font-size:28px;font-style:normal;font-variant:normal;font-weight:bold;font-stretch:normal;fill:#ffffff;font-family:MS PGothic;-inkscape-font-specification:MS PGothic Bold"
           y="501.05954"
           x="438.09323"
           id="tspan4073-5-7-1-2-6"
           sodipodi:role="line">3</tspan></text>
    </g>
    <text
       xml:space="preserve"
       style="font-size:56px;font-style:normal;font-weight:normal;text-align:center;line-height:125%;letter-spacing:0px;word-spacing:0px;text-anchor:middle;fill:#77c200;fill-opacity:1;stroke:none;font-family:Sans"
       x="270.53308"
       y="308.26129"
       id="text3112-1"
       sodipodi:linespacing="125%"><tspan
         sodipodi:role="line"
         id="tspan3114-4"
         x="270.53308"
         y="308.26129"
         style="font-size:14px;font-style:normal;font-variant:normal;font-weight:bold;font-stretch:normal;fill:#77c200;fill-opacity:1;font-family:MS PGothic;-inkscape-font-specification:MS PGothic Bold">テーブルデータ作成</tspan></text>
    <text
       xml:space="preserve"
       style="font-size:56px;font-style:normal;font-weight:bold;text-align:center;line-height:125%;letter-spacing:0px;word-spacing:0px;text-anchor:middle;fill:#77c200;fill-opacity:1;stroke:none;font-family:Sans;-inkscape-font-specification:MS PGothic Bold"
       x="107.26501"
       y="112.1347"
       id="text4237"
       sodipodi:linespacing="125%"><tspan
         sodipodi:role="line"
         id="tspan4239"
         x="107.26501"
         y="112.1347"
         style="font-size:14px;font-style:normal;font-variant:normal;font-weight:bold;font-stretch:normal;fill:#77c200;fill-opacity:1;font-family:MS PGothic;-inkscape-font-specification:MS PGothic Bold">テンプレートの</tspan><tspan
         sodipodi:role="line"
         x="107.26501"
         y="129.6347"
         id="tspan4241"
         style="font-size:14px;font-style:normal;font-variant:normal;font-weight:bold;font-stretch:normal;fill:#77c200;fill-opacity:1;font-family:MS PGothic;-inkscape-font-specification:MS PGothic Bold">ダウンロード</tspan></text>
    <text
       xml:space="preserve"
       style="font-size:56px;font-style:normal;font-weight:normal;text-align:center;line-height:125%;letter-spacing:0px;word-spacing:0px;text-anchor:middle;fill:#77c200;fill-opacity:1;stroke:none;font-family:Sans"
       x="106.43547"
       y="304.93091"
       id="text4243"
       sodipodi:linespacing="125%"><tspan
         sodipodi:role="line"
         id="tspan4245"
         x="106.43547"
         y="304.93091"
         style="font-size:14px;font-style:normal;font-variant:normal;font-weight:bold;font-stretch:normal;fill:#77c200;fill-opacity:1;font-family:MS PGothic;-inkscape-font-specification:MS PGothic Bold">XML Schemaの</tspan><tspan
         sodipodi:role="line"
         x="106.43547"
         y="322.43091"
         id="tspan4247"
         style="font-size:14px;font-style:normal;font-variant:normal;font-weight:bold;font-stretch:normal;fill:#77c200;fill-opacity:1;font-family:MS PGothic;-inkscape-font-specification:MS PGothic Bold">ダウンロード</tspan></text>
    <g
       id="g4346"
       transform="translate(66,-336)">
      <path
         sodipodi:nodetypes="cccccccc"
         inkscape:connector-curvature="0"
         id="path4251"
         d="m 405,583.36218 13,0 -23,-22 -23,22 13,0 0,33 20,0 z"
         style="fill:#77c200;fill-opacity:1;stroke:none" />
      <path
         sodipodi:nodetypes="ccccccccc"
         inkscape:connector-curvature="0"
         id="path4253"
         d="m 356,610.36218 0,23 79,0 0,-23 -5,0 0,18 -69,0 0,-18 z"
         style="fill:#77c200;fill-opacity:1;stroke:none" />
    </g>
    <g
       id="g4468"
       transform="translate(26,-330)">
      <path
         inkscape:connector-curvature="0"
         id="path4255"
         d="m 217,452.36218 0,80 60,0 0,-60 -20,-20 z"
         style="fill:none;stroke:#77c200;stroke-width:4;stroke-linecap:butt;stroke-linejoin:miter;stroke-miterlimit:4;stroke-opacity:1;stroke-dasharray:none" />
      <path
         inkscape:connector-curvature="0"
         id="path4257"
         d="m 257,452.36218 0,20 20,0 0,0"
         style="fill:none;stroke:#77c200;stroke-width:4;stroke-linecap:butt;stroke-linejoin:miter;stroke-miterlimit:4;stroke-opacity:1;stroke-dasharray:none" />
      <path
         inkscape:connector-curvature="0"
         id="path4259"
         d="m 227,487.36218 0,40 40,0 0,-40 z"
         style="fill:none;stroke:#77c200;stroke-width:2;stroke-linecap:butt;stroke-linejoin:miter;stroke-miterlimit:4;stroke-opacity:1;stroke-dasharray:none" />
      <path
         inkscape:connector-curvature="0"
         id="path4261"
         d="m 227,492.36218 40,0 z"
         style="fill:none;stroke:#77c200;stroke-width:2;stroke-linecap:butt;stroke-linejoin:miter;stroke-miterlimit:4;stroke-opacity:1;stroke-dasharray:none" />
      <path
         inkscape:connector-curvature="0"
         id="path4263"
         d="m 227,497.36218 40,0"
         style="fill:none;stroke:#77c200;stroke-width:2;stroke-linecap:butt;stroke-linejoin:miter;stroke-miterlimit:4;stroke-opacity:1;stroke-dasharray:none" />
      <path
         inkscape:connector-curvature="0"
         id="path4265"
         d="m 227,502.36218 40,0"
         style="fill:none;stroke:#77c200;stroke-width:2;stroke-linecap:butt;stroke-linejoin:miter;stroke-miterlimit:4;stroke-opacity:1;stroke-dasharray:none" />
      <path
         inkscape:connector-curvature="0"
         id="path4267"
         d="m 227,507.36218 40,0"
         style="fill:none;stroke:#77c200;stroke-width:2;stroke-linecap:butt;stroke-linejoin:miter;stroke-miterlimit:4;stroke-opacity:1;stroke-dasharray:none" />
      <path
         inkscape:connector-curvature="0"
         id="path4269"
         d="m 227,512.36218 40,0"
         style="fill:none;stroke:#77c200;stroke-width:2;stroke-linecap:butt;stroke-linejoin:miter;stroke-miterlimit:4;stroke-opacity:1;stroke-dasharray:none" />
      <path
         inkscape:connector-curvature="0"
         id="path4271"
         d="m 227,517.36218 40,0"
         style="fill:none;stroke:#77c200;stroke-width:2;stroke-linecap:butt;stroke-linejoin:miter;stroke-miterlimit:4;stroke-opacity:1;stroke-dasharray:none" />
      <path
         inkscape:connector-curvature="0"
         id="path4273"
         d="m 227,522.36218 40,0"
         style="fill:none;stroke:#77c200;stroke-width:2;stroke-linecap:butt;stroke-linejoin:miter;stroke-miterlimit:4;stroke-opacity:1;stroke-dasharray:none" />
      <path
         inkscape:connector-curvature="0"
         id="path4275"
         d="m 247,527.36218 0,-40"
         style="fill:none;stroke:#77c200;stroke-width:2;stroke-linecap:butt;stroke-linejoin:miter;stroke-miterlimit:4;stroke-opacity:1;stroke-dasharray:none" />
      <path
         inkscape:connector-curvature="0"
         id="path4277"
         d="m 257,487.36218 0,40"
         style="fill:none;stroke:#77c200;stroke-width:2;stroke-linecap:butt;stroke-linejoin:miter;stroke-miterlimit:4;stroke-opacity:1;stroke-dasharray:none" />
      <path
         inkscape:connector-curvature="0"
         id="path4279"
         d="m 237,527.36218 0,-40"
         style="fill:none;stroke:#77c200;stroke-width:2;stroke-linecap:butt;stroke-linejoin:miter;stroke-miterlimit:4;stroke-opacity:1;stroke-dasharray:none" />
    </g>
    <path
       style="fill:none;stroke:#77c200;stroke-width:4;stroke-linecap:butt;stroke-linejoin:miter;stroke-miterlimit:4;stroke-opacity:1;stroke-dasharray:none"
       d="m 242.08622,319.36218 0,80 60,0 0,-60 -20,-20 z"
       id="path4255-9"
       inkscape:connector-curvature="0" />
    <path
       style="fill:none;stroke:#77c200;stroke-width:4;stroke-linecap:butt;stroke-linejoin:miter;stroke-miterlimit:4;stroke-opacity:1;stroke-dasharray:none"
       d="m 282.08622,319.36218 0,20 20,0 0,0"
       id="path4257-5"
       inkscape:connector-curvature="0" />
    <g
       id="g4577"
       transform="translate(14,-324)">
      <path
         sodipodi:nodetypes="cccccccc"
         inkscape:connector-curvature="0"
         id="path4251-4"
         d="m 103,496.36218 13,0 -23,22 -23,-22 13,0 0,-33 20,0 z"
         style="fill:#77c200;fill-opacity:1;stroke:none" />
      <path
         sodipodi:nodetypes="ccccccccc"
         inkscape:connector-curvature="0"
         id="path4253-2"
         d="m 54,512.36218 0,23 79,0 0,-23 -5,0 0,18 -69,0 0,-18 z"
         style="fill:#77c200;fill-opacity:1;stroke:none" />
    </g>
    <g
       id="g4581"
       transform="translate(20,-310)">
      <path
         sodipodi:nodetypes="cccccccc"
         inkscape:connector-curvature="0"
         id="path4251-4-7"
         d="m 98,673.36218 13,0 -23,22 -23,-22 13,0 0,-33 20,0 z"
         style="fill:#77c200;fill-opacity:1;stroke:none" />
      <path
         sodipodi:nodetypes="ccccccccc"
         inkscape:connector-curvature="0"
         id="path4253-2-9"
         d="m 49,689.36218 0,23 79,0 0,-23 -5,0 0,18 -69,0 0,-18 z"
         style="fill:#77c200;fill-opacity:1;stroke:none" />
    </g>
    <g
       id="g4625"
       transform="translate(86,-334)">
      <path
         sodipodi:nodetypes="ccccsccccsccccsccccsccccsccccsc"
         inkscape:connector-curvature="0"
         id="path4605"
         d="m 579.97539,607.44892 9,-1 1,-6 -8,-5 c 0,0 -0.23731,-4.12857 -1.06159,-6.10684 -0.84239,-2.02173 -3.93841,-5.89316 -3.93841,-5.89316 l 4,-9 -4.46696,-4.1523 -10.53304,5.1523 c 0,0 -4.67718,-1.66817 -7,-2 -2.34385,-0.33483 -7,0 -7,0 l -6.59229,-7.73078 -5.73078,2.21538 0.32307,9.5154 c 0,0 -4.59597,2.59597 -6,4 -1.9293,1.9293 -4,6 -4,6 l -9,1 -1,6 8,5 c 0,0 0.10376,4.72308 0.93841,6.89316 0.83202,2.16325 4.06159,6.10684 4.06159,6.10684 l -4,8 5,4 10,-5 c 0,0 3.76216,2.37942 5.93841,2.89316 2.27091,0.53609 7.06159,0.10684 7.06159,0.10684 l 6,7 7.06731,-2.54232 -0.0673,-9.45768 c 0,0 4.13997,-2.13997 6,-4 1.4733,-1.4733 4,-6 3.99999,-6 z"
         style="fill:#77c200;fill-opacity:1;stroke:none" />
      <path
         transform="matrix(2.9444444,0,0,3.117648,-1073.3485,-1250.9366)"
         d="m 562,592.86218 c 0,4.69442 -4.02944,8.5 -9,8.5 -4.97056,0 -9,-3.80558 -9,-8.5 0,-4.69442 4.02944,-8.5 9,-8.5 4.97056,0 9,3.80558 9,8.5 z"
         sodipodi:ry="8.5"
         sodipodi:rx="9"
         sodipodi:cy="592.86218"
         sodipodi:cx="553"
         id="path4585-1"
         style="fill:#77c200;fill-opacity:1;stroke:none"
         sodipodi:type="arc" />
      <path
         transform="matrix(1.0510278,0,0,1.1128532,-26.28467,-62.34881)"
         d="m 562,592.86218 c 0,4.69442 -4.02944,8.5 -9,8.5 -4.97056,0 -9,-3.80558 -9,-8.5 0,-4.69442 4.02944,-8.5 9,-8.5 4.97056,0 9,3.80558 9,8.5 z"
         sodipodi:ry="8.5"
         sodipodi:rx="9"
         sodipodi:cy="592.86218"
         sodipodi:cx="553"
         id="path4585"
         style="fill:#ffffff;fill-opacity:1;stroke:none"
         sodipodi:type="arc" />
    </g>
    <path
       style="fill:#77c200;fill-opacity:1;stroke:none"
       d="m 804.40702,261.64067 0,13 22,-23 -22,-23 0,13 -74.00002,0 0,20 z"
       id="path4251-8"
       inkscape:connector-curvature="0"
       sodipodi:nodetypes="cccccccc" />
    <path
       style="fill:#77c200;fill-opacity:1;stroke:none"
       d="m 282.33227,457.7897 13,0 -23,-22 -23,22 13,0 0,33 387.66773,0 0,-143.42752 -20,0 0,123.428 -347.668,0 z"
       id="path4251-8-5"
       inkscape:connector-curvature="0"
       sodipodi:nodetypes="cccccccccccc" />
    <path
       style="fill:#77c200;fill-opacity:1;stroke:none"
       d="m 282.33227,48.36218 13,0 -23,22 -23,-22 13,0 0,-33 387.66773,0 0,143.42752 -20,0 0,-123.428 -347.668,0 z"
       id="path4251-8-5-2"
       inkscape:connector-curvature="0"
       sodipodi:nodetypes="cccccccccccc" />
    <path
       style="fill:none;stroke:#77c200;stroke-width:4;stroke-linecap:butt;stroke-linejoin:miter;stroke-miterlimit:4;stroke-opacity:1;stroke-dasharray:24, 8;stroke-dashoffset:0"
       d="m 40,252.36218 c 310,0 300,0 300,0"
       id="path4710"
       inkscape:connector-curvature="0" />
    <text
       xml:space="preserve"
       style="font-size:56px;font-style:normal;font-weight:normal;text-align:center;line-height:125%;letter-spacing:0px;word-spacing:0px;text-anchor:middle;fill:#77c200;fill-opacity:1;stroke:none;font-family:Sans"
       x="462.05585"
       y="211.11334"
       id="text3116"
       sodipodi:linespacing="125%"><tspan
         sodipodi:role="line"
         id="tspan3118"
         x="462.05585"
         y="211.11334"
         style="font-size:14px;font-style:normal;font-variant:normal;font-weight:bold;font-stretch:normal;fill:#77c200;fill-opacity:1;font-family:MS PGothic;-inkscape-font-specification:MS PGothic Bold">アップロード</tspan></text>
    <text
       xml:space="preserve"
       style="font-size:24px;font-style:normal;font-weight:normal;text-align:center;line-height:125%;letter-spacing:0px;word-spacing:0px;text-anchor:middle;fill:#77c200;fill-opacity:1;stroke:none;font-family:Sans"
       x="271.01733"
       y="367.41687"
       id="text4730"
       sodipodi:linespacing="125%"><tspan
         sodipodi:role="line"
         id="tspan4732"
         x="271.01733"
         y="367.41687"
         style="font-size:16px;font-style:normal;font-weight:bold;fill:#77c200;fill-opacity:1;-inkscape-font-specification:Sans Bold">&lt;XML&gt;</tspan></text>
  </g>
</svg>
